#tb 0: 1/10
#media_type 0: video
#codec_id 0: rawvideo
#dimensions 0: 320x240
#sar 0: 1/1
0,          0,          0,        1,   115200, 0xeba70ff3
0,          1,          1,        1,   115200, 0x56a01933
0,          2,          2,        1,   115200, 0x14836efb
0,          3,          3,        1,   115200, 0xb77c6df6
0,          4,          4,        1,   115200, 0xa9726839
0,          5,          5,        1,   115200, 0xa764e4d5
0,          6,          6,        1,   115200, 0xc4b77097
0,          7,          7,        1,   115200, 0xa371787a
0,          8,          8,        1,   115200, 0xf7676910
0,          9,          9,        1,   115200, 0xe95f575f
